<svg xmlns="http://www.w3.org/2000/svg" viewBox="0 0 50 50" fill="none">
  <!-- Employees-List - Employee management -->
  <circle cx="25" cy="12" r="6" fill="#FF2D20"/>
  <path d="M15 28c0-5.5 4.5-10 10-10s10 4.5 10 10v2H15v-2z" fill="#FF2D20"/>
  <circle cx="12" cy="18" r="4" fill="#4479A1"/>
  <path d="M5 30c0-3.9 3.1-7 7-7s7 3.1 7 7" fill="#4479A1" opacity="0.7"/>
  <circle cx="38" cy="18" r="4" fill="#4479A1"/>
  <path d="M31 30c0-3.9 3.1-7 7-7s7 3.1 7 7" fill="#4479A1" opacity="0.7"/>
  <rect x="10" y="34" width="30" height="3" rx="1.5" fill="#FF2D20" opacity="0.4"/>
  <rect x="10" y="39" width="30" height="3" rx="1.5" fill="#FF2D20" opacity="0.3"/>
  <rect x="10" y="44" width="30" height="3" rx="1.5" fill="#FF2D20" opacity="0.2"/>
</svg>
