<svg xmlns="http://www.w3.org/2000/svg" viewBox="0 0 50 50" fill="none">
  <!-- CuriositiesMagazine - Magazine website -->
  <path d="M8 6c0-1 1-2 2-2h12c0 0 3 1 3 3v38c0 0-3-2-3-2H10c-1 0-2-1-2-2V6z" fill="#E34F26"/>
  <path d="M42 6c0-1-1-2-2-2H28c0 0-3 1-3 3v38c0 0 3-2 3-2h12c1 0 2-1 2-2V6z" fill="#1572B6"/>
  <rect x="12" y="10" width="8" height="2" rx="1" fill="#fff" opacity="0.7"/>
  <rect x="12" y="15" width="6" height="2" rx="1" fill="#fff" opacity="0.5"/>
  <rect x="30" y="10" width="8" height="2" rx="1" fill="#fff" opacity="0.7"/>
  <rect x="30" y="15" width="6" height="2" rx="1" fill="#fff" opacity="0.5"/>
</svg>
